<svg id="visual" viewBox="0 0 1920 1080" width="1920" height="1080" xmlns="http://www.w3.org/2000/svg" xmlns:xlink="http://www.w3.org/1999/xlink" version="1.1"><path d="M786 0L952 154L932 309L866 463L931 617L931 771L785 926L867 1080L0 1080L0 926L0 771L0 617L0 463L0 309L0 154L0 0Z" fill="#6746e3"></path><path d="M865 0L840 154L907 309L751 463L889 617L803 771L912 926L776 1080L0 1080L0 926L0 771L0 617L0 463L0 309L0 154L0 0Z" fill="#805de7"></path><path d="M685 0L797 154L638 309L666 463L705 617L813 771L795 926L777 1080L0 1080L0 926L0 771L0 617L0 463L0 309L0 154L0 0Z" fill="#9673eb"></path><path d="M544 0L543 154L589 309L627 463L566 617L543 771L522 926L680 1080L0 1080L0 926L0 771L0 617L0 463L0 309L0 154L0 0Z" fill="#a98aef"></path><path d="M474 0L516 154L522 309L560 463L542 617L469 771L547 926L511 1080L0 1080L0 926L0 771L0 617L0 463L0 309L0 154L0 0Z" fill="#bca1f3"></path><path d="M396 0L348 154L350 309L413 463L441 617L404 771L389 926L439 1080L0 1080L0 926L0 771L0 617L0 463L0 309L0 154L0 0Z" fill="#ceb8f6"></path><path d="M352 0L275 154L246 309L273 463L287 617L261 771L244 926L270 1080L0 1080L0 926L0 771L0 617L0 463L0 309L0 154L0 0Z" fill="#dfcffa"></path><path d="M254 0L275 154L188 309L258 463L263 617L202 771L168 926L212 1080L0 1080L0 926L0 771L0 617L0 463L0 309L0 154L0 0Z" fill="#efe7fc"></path><path d="M164 0L66 154L105 309L161 463L128 617L61 771L122 926L127 1080L0 1080L0 926L0 771L0 617L0 463L0 309L0 154L0 0Z" fill="#ffffff"></path></svg>